<?xml version="1.0" encoding="utf-8"?>
<!-- Generator: Adobe Illustrator 25.2.1, SVG Export Plug-In . SVG Version: 6.00 Build 0)  -->
<svg version="1.1" id="Layer_1" xmlns="http://www.w3.org/2000/svg" xmlns:xlink="http://www.w3.org/1999/xlink" x="0px" y="0px"
	 viewBox="0 0 612 792" style="enable-background:new 0 0 612 792;" xml:space="preserve">
<style type="text/css">
	.st0{fill:#00FFF2;}
</style>
<path class="st0" d="M393.4,463.7h-233c-19.4,0-35.1-19.5-35.1-43.4v-48.7c0-23.9,15.8-43.4,35.1-43.4h291.3
	c19.4,0,35.1,19.5,35.1,43.4v48.7c0,11.4-3.5,22.1-9.9,30.2c-1.7,2.2-4.8,2.6-7,0.8c-2.2-1.7-2.6-4.8-0.8-7c5-6.4,7.8-14.9,7.8-24
	v-48.7c0-18.4-11.3-33.4-25.1-33.4H160.4c-13.8,0-25.1,15-25.1,33.4v48.7c0,18.4,11.3,33.4,25.1,33.4h233c2.8,0,5,2.2,5,5
	S396.1,463.7,393.4,463.7z"/>
</svg>
